<svg xmlns="http://www.w3.org/2000/svg" viewBox="0 0 340.71 163.91">
    <defs>
        <style>
            .cls-1{fill:#202d45}.cls-2{fill:#c14e27}
        </style>
    </defs>
    <g id="Layer_2" data-name="Layer 2">
        <g id="Layer_1-2" data-name="Layer 1">
            <path class="cls-1" d="M31.54 96.08c12.78 0 18.75-5.28 20.88-7.41l-5.54-15.35a19.64 19.64 0 01-14.06 5.37c-6.82 0-13.47-4.09-13.47-13.21S25.57 52 32.82 52 46 57.13 46 57.13l5.11-16.2s-6.39-5.54-19.6-5.54C14.06 35.39 0 46.13 0 65.74s14.06 30.34 31.54 30.34z"/>
            <path class="cls-1" d="M72.54 36.25L52.08 95.06h20l2.22-8.27h16.82l2.3 8.27h20.88L93.85 36.25zm5.88 35.8l4.35-15.77 4.35 15.77z"/>
            <path class="cls-1" d="M136 75.45h2.48l9.37 19.61H170l-13.17-22.33c2.56-1.54 9.8-5.8 9.8-17.73a17.35 17.35 0 00-7.24-14.49c-4.27-3-9.81-4.26-17-4.26h-25.62v58.81H136zm0-24.71h4.86a6.59 6.59 0 014.26 1.1 4.26 4.26 0 012.13 4c0 3.84-3.07 5.11-6.39 5.11H136z"/>
            <path class="cls-1" d="M200.59 58c-2.05-.68-5.63-1.7-7-2.13s-4.09-1-4.09-2.73 1.7-2.38 4.77-2.38a24.34 24.34 0 0114 5.62l7.33-13.64c-5.11-4.26-13.12-7.07-21-7.07s-13.72 2.13-17.3 5.11A18.63 18.63 0 00170.5 55c0 9.8 5.29 13.64 13.47 16.87 1.71.6 6.39 2.13 8.52 2.73s4.26 1.37 4.26 3.07-1.79 2.47-4.34 2.47-10.23-1.79-15.69-6.39l-8.52 14.49a37.18 37.18 0 0022.67 7.84c6.82 0 12.7-1.45 17.39-5a19.48 19.48 0 007.67-15.34c0-10.34-6.48-14.74-15.34-17.74z"/>
            <path class="cls-1" d="M249.91 35.78c-18.32 0-32 11.26-32 30.43s13.64 30.35 32 30.35 32-11.17 32-30.35-13.67-30.43-32-30.43z"/>
            <path class="cls-1" d="M322 36.25v22.16c0 4.26.42 10.65.42 10.65l-17-32.81h-20.97v58.81h18.75V72.9c0-4.26-.42-10.66-.42-10.66l17.9 32.82h20V36.25z"/>
            <path class="cls-1" d="M32.82 146.53c-6.82 0-13.47-4.1-13.47-13.22s6.22-13.46 13.47-13.46S46 125 46 125l5.11-16.19s-6.39-5.54-19.6-5.54C14.06 103.23 0 114 0 133.57s14.06 30.34 31.54 30.34c12.78 0 18.75-5.28 20.88-7.41l-5.54-15.34a19.68 19.68 0 01-14.06 5.37z"/>
            <path class="cls-1" d="M55.48 104.08h19.26v58.81H55.48z"/>
            <path class="cls-1" d="M146.12 123.94l-8.7-19.86H77.85v15h13.81v43.81h19.26v-43.81h13.72l11.84 20.8v23.01h19.27v-23.01l20.45-35.8h-21.31l-8.77 19.86z"/>
            <path class="cls-2" d="M90.29 25.27h6.73V5.74h7.21V.33H83.22v5.41h7.07v19.53z"/>
            <path class="cls-2" d="M17.53 25.27L25.92.33h-7.48l-4.42 16.15L9.62.33H2.19l8.32 24.94h7.02z"/>
            <path class="cls-2" d="M49.44 24.52a13.47 13.47 0 005.48 1.08 11 11 0 006.79-1.89 6.32 6.32 0 002.56-5.32c0-2.8-1.39-5-4.12-6.59A21.89 21.89 0 0056 10a12 12 0 01-3.34-1.48 1.65 1.65 0 01-.8-1.3 1.64 1.64 0 01.71-1.36 3.51 3.51 0 012.16-.59 3.06 3.06 0 012.09.73 2.46 2.46 0 01.74 1.92v.48h6.71v-.48a7.43 7.43 0 00-1.21-4.16A8 8 0 0059.67 1a11.75 11.75 0 00-4.84-1 13.43 13.43 0 00-4.95.88 8 8 0 00-3.49 2.53 6.08 6.08 0 00-1.26 3.81c0 2.85 1.66 5.11 4.93 6.72a30.72 30.72 0 003.75 1.49 10.43 10.43 0 013 1.39 1.88 1.88 0 01.72 1.6 1.58 1.58 0 01-.64 1.36 3.28 3.28 0 01-2 .53 4.32 4.32 0 01-2.89-.79 3.27 3.27 0 01-.85-2.5v-.47H44.4V17a8 8 0 001.28 4.46 8.48 8.48 0 003.76 3.06z"/>
            <path class="cls-2" d="M31.15.33h6.72v24.94h-6.72z"/>
            <path class="cls-2" d="M70.91.33h6.71v24.94h-6.71z"/>
            <path class="cls-2" d="M199.22 134.26l-7.74-13.62h-6.53v24.95h6.73v-13.62l7.75 13.62h6.51v-24.95h-6.72v13.62z"/>
            <path class="cls-2" d="M222.65 136.79l-4.4-16.15h-7.43l8.33 24.95h7.01l8.39-24.95h-7.48l-4.42 16.15z"/>
            <path class="cls-2" d="M256.07 72.68l-25.13 12.46 12.46-25.11 1.86 10.79 10.81 1.86z"/>
            <path d="M262.66 50.29l-19.13 9.5-.13.24 1.86 10.79 10.81 1.86.23-.12 9.49-19.13 3.09-6.23z" style="fill:#fff"/>
            <path class="cls-2" d="M252 68.11h-.06a2.81 2.81 0 01-4-4v-.06a2.81 2.81 0 014 4z"/>
        </g>
    </g>
</svg>