<?xml version="1.0" encoding="UTF-8"?>
<svg id="Layer_2" data-name="Layer 2" xmlns="http://www.w3.org/2000/svg" viewBox="0 0 899.77 520.08">
  <defs>
    <style>
      .cls-1 {
        fill: #fff;
      }
    </style>
  </defs>
  <g id="Layer_1-2" data-name="Layer 1">
    <path class="cls-1" d="m456.17,36.64c-18.51-.63-33.13,3.2-47.41,15.35-36.65,31.21-87.82,119.54-135.27,222.93-57.18,124.57-89.56,170.75-112.26,175.02-2.89-7.9-4.34-18.56-4.34-28.41,0-116.65,74.65-266.92,74.65-301.53,0-14.33-7.55-31.28-17.5-41.78-8.63-9.09-17.13-14.18-28.78-14.18-47.45,0-157.55,52.61-173.53,43.35-2.04-1.18-2.89-1.3-4.45.92-4.13,5.83-7.27,15.43-7.27,25.5,0,15.51,7.16,28.13,24.09,28.13,31.69,0,136.95-55.05,172.11-55.05,4.33,0,5.11,1.68,5.11,3.97,0,16.54-85.87,156.75-85.87,269.05,0,44.76,9.95,69.27,29.52,89.9,14.76,15.55,28,23.55,37.76,23.55,29.57,0,60.9-40.67,115.37-168.41,46.3-108.56,97.81-213.89,160.58-280.27,4.55-4.81,2.72-7.84-2.5-8.02"/>
    <path class="cls-1" d="m895.13,317.13c-27.41-3.92-70.48-5.19-106.99-2.39-2.7-35.09-15.07-78.8-15.7-102.78,5.5-13.33,8.69-23.55,8.69-28.03,0-3.69-1.37-4.97-4.24-4.97-3.1,0-8.03,2.64-12.73,7.52-11.85,12.3-16.65,22.38-17.46,43.28-26.22,42.69-65.2,85.74-78.44,92.09,1.91-13.7,14.27-47.1,20.87-68.96,1.32-4.38,1.65-7.92,1.59-10.86-.22-9.69-10.62-17.23-14.81-25.86-4.19-8.62-8.91-16.17-18.46-16.07-30.5.3-88.39,65.08-87.46,106.7.38,17.06,16.22,36.53,30.32,36.39,10.48-.1,24.93-13.97,43.56-40.83-2.91,19.7-.13,30.85,9.47,40.76,6.31,6.52,13.26,8.95,17.38,8.91,19.84-.2,54.84-49.86,77.12-89.68,1.28,17.86,3.16,39.3,3.77,56.89-27.96,4.66-45.37,10.74-45.37,19.45,0,13.02,21.23,32.17,42.87,32.17,19.12,0,33.72-12.26,38.16-31.12,22.96-.05,48.76.92,70.74,3.37,16.45,1.83,22.07.38,29.66-5.76,3.17-2.57,7.37-7.08,9.98-11.16,3.61-5.65,2.6-8.35-2.5-9.07m-252.8-44.6c-14.5,20.66-33.71,36.37-36.72,33.78-3.34-2.86,5.32-26.74,20.74-47.72,15.42-20.99,35.84-36.85,39.32-33.57,3.37,3.2-9.03,27.09-23.35,47.51m100.07,80.81c-4.82,0-9.26-3.12-12.01-7.16-1.13-1.66-.73-2.96.94-3.28,4.5-.85,11.5-1.58,20.14-2.12-.74,8.75-2.96,12.56-9.08,12.56"/>
    <path class="cls-1" d="m629.51,357.49c-23.2-2.23-56.52,3.6-92.62,12.77,11.33-40.64,23.16-79.28,33.7-114.75,2.12-7.12,2.95-10.44,2.95-14.5,0-10.45-7.24-12.14-11.14-24.8-3.72-12.05-9.3-20.48-18.67-20.48-22.56,0-61.52,39.8-101.12,89.71-38.48,48.51-74.92,79.78-88.47,79.78-3.23,0-5.75-2.81-5.75-10.25,0-6.69,1.72-17.14,7.04-32.11,44.29,1.61,84-41.84,84-69.44,0-14.26-16.07-33.28-33.1-33.28-32.47,0-91.47,72.92-91.47,116.69,0,32.82,25.75,61.6,46.66,61.6,25.61,0,58.2-43.01,92.29-100.38-1.59,6.03-2.52,12.15-2.52,17.88,0,22.13,15.77,43.01,30.52,43.01,10.86,0,26.3-16.66,42.03-44.16-9.68,25.44-17.78,47.19-24.46,65.79-78.57,23.01-158.57,53.7-170.95,47.37-1.77-.9-2.69-.76-3.81,1.03-2.96,4.74-4.87,12.53-4.21,20.7,1.54,18.93,11.92,26.12,36.43,19.59,25.12-6.68,75.29-28.64,129.1-49.87-11.08,33.77-15.12,52.48-15.12,64.89,0,14.59,8.73,26.86,23.71,34.46,4.32,2.19,7.27,2.09,8.25-3.35,6.83-38.17,15.62-75.73,25.13-111.99,32.55-11.87,64.44-22,91.04-26.93,7.33-1.36,10.58-3.53,14.36-11.89,2.17-4.81,1.1-6.63-3.8-7.09m-220.03-111.84c5.13,3.71-20.79,50.08-46.28,58.39,15.95-33.42,41.64-61.75,46.28-58.39m74.78,74.1c-4.15-3.04,4.93-31.41,22.28-57.03,17.36-25.62,40.55-42.9,43.98-39.8,4.05,3.67-8.1,29.59-24.16,54.44-16.26,25.16-38.34,45.13-42.11,42.39"/>
    <path class="cls-1" d="m675.26,163.28l.1,3.14c.11,3.27-2.61,6.02-6.06,6.14l-87.8,3.1c-3.45.12-6.33-2.43-6.44-5.7l-.21-5.13-59.74,7.38c-3.44.42-6.5-1.87-6.86-5.13l-16.33-148.35c-.35-3.25,2.14-6.23,5.57-6.64l87.24-10.68c3.44-.42,6.5,1.87,6.86,5.13l.81,7.37,62.41-2.17.61-6.45c.29-3.25,3.31-5.62,6.75-5.27l87.46,8.78c3.44.34,5.98,3.26,5.7,6.52l-13.44,148.68c-.29,3.25-3.32,5.61-6.75,5.27l-59.88-6.01Zm-97.61-19.97s-1.77-9.19-2.43-20.49c-4.38,1.47-9.83,2.53-14.54,2.62-6.56.15-8.57-2.61-10.13-10.04-3.04-12.77-7.96-61.38-8.13-88.39,0,0-11.09,3.23-22.27,2.94,5.44,27.38,13.04,88.45,14.14,119.07,12.55-2.36,28.83-4.51,43.37-5.71m79.08,9.74c-6.31-21.24-19.84-98.48-22.07-121.69-8.66,1.32-20.54,1.56-28.43,1.24-1.28,27.45-8.21,100.94-11.59,122.48,10.99-1.61,19.91-.81,19.91-.81-.83-7.2-.69-15.16.1-20.15.95-5,3.9-6.38,9.09-6.64,5.69-.29,8.62,1.51,9.71,7.11.91,5.43,1.75,12.81,2.22,19.5,13.67-1.57,21.07-1.06,21.07-1.06m-27.7-49.5c.19,4.23-.89,6.23-5.41,6.45-4.35.22-5.94-1.65-6.11-5.53-.32-7.23,1.39-32.4,2.69-40.76.56-2.5,1.9-2.39,2.52-.13,2.02,7.68,5.97,32.22,6.32,39.97m46.13-7.25c.3,9.6-2.91,22.58-.4,31.69,2.73,10.56,10.74,16.71,21.41,17.79,15.17,1.56,26.4-9,28.15-27.97,1.74-18.97-4.92-26.93-16.53-37.87-10.55-9.77-12.04-17.19-11.19-26.5.86-9.31,4.33-14.1,8-13.72,6.49.67,5.8,13.71,2.35,32.87,11.23.44,18.46,2.25,18.46,2.25.31-8.84,2.06-16.82,2.34-27.25.53-13.06-4.53-25.64-21.36-27.36-15.67-1.6-26.29,7.77-28.34,30.08-1.75,18.96,5.51,29.64,14.89,39.28,9.06,9.44,13.44,16.63,12.6,25.77-.6,6.5-3.37,11-7.2,10.61-7.5-.76-7.2-13.14-4.08-27.01,0,0-8.37-.32-19.1-2.66"/>
    <path class="cls-1" d="m807.26,273.27c7.83,0,14.17,6.68,14.17,14.93s-6.34,14.94-14.17,14.94-14.16-6.68-14.16-14.94,6.34-14.93,14.16-14.93m0,26.64c6.45,0,10.89-5.14,10.89-11.71s-4.43-11.71-10.89-11.71-10.88,5.15-10.88,11.71,4.44,11.71,10.88,11.71m-5.56-20.04h6.08c4.03,0,6.12,1.38,6.12,4.87,0,2.99-1.79,4.25-4.15,4.52l4.25,7.35h-3.51l-4.02-7.35h-1.72v7.35h-3.06v-16.74Zm5.75,7.11c1.64,0,3.16-.28,3.16-2.55,0-1.96-1.82-2.28-3.13-2.28h-2.72v4.83h2.69Z"/>
  </g>
</svg>